<svg width="24" height="24" viewBox="0 0 24 24" fill="none" xmlns="http://www.w3.org/2000/svg">
<path d="M14.7825 19.3389C14.7825 20.3287 14.2547 21.0863 13.3977 21.5815C12.5409 22.0765 11.4851 22.0765 10.6299 21.5815C9.77258 21.0863 9.24512 20.3287 9.24512 19.3389" fill="#92929D"/>
<path d="M12.0127 2.05566C12.7679 2.05566 13.3762 2.52126 13.3762 3.23726C13.3762 3.68793 13.3919 4.0242 13.6751 4.11033C16.0834 4.83753 17.6276 6.54207 17.6276 8.75567V12.4762C17.6276 14.1807 18.325 14.5258 19.2026 15.1778C20.4735 16.1205 20.1834 18.0834 18.725 18.0821H5.30097C3.84257 18.0834 3.55243 16.1205 4.82337 15.1778C5.6999 14.5258 6.3983 14.1807 6.3983 12.4762V8.75567C6.3983 6.54207 7.94257 4.83753 10.3508 4.11033C10.6332 4.0242 10.6498 3.68793 10.6498 3.23726C10.65 2.52126 11.2586 2.05566 12.0127 2.05566Z" fill="#92929D"/>
</svg>
