<svg width="16" height="16" viewBox="0 0 16 16" fill="none" xmlns="http://www.w3.org/2000/svg">
<g clip-path="url(#clip0_724_1322)">
<path d="M1.51672 15.8998C1.12445 15.9226 0.738661 15.7922 0.440711 15.536C-0.146904 14.9449 -0.146904 13.9902 0.440711 13.3991L13.3076 0.532244C13.9187 -0.0396496 14.8778 -0.00785834 15.4496 0.603313C15.9668 1.15599 15.9969 2.00547 15.5202 2.59339L2.57757 15.536C2.28346 15.7885 1.90386 15.9186 1.51672 15.8998Z" fill="#92929D"/>
<path d="M14.3684 15.8998C13.9708 15.8981 13.5898 15.7403 13.3075 15.4603L0.440589 2.59337C-0.103806 1.95764 -0.0297926 1.00091 0.605934 0.456468C1.17334 -0.0294345 2.01014 -0.0294345 2.57749 0.456468L15.5201 13.3233C16.1312 13.8954 16.1628 14.8545 15.5907 15.4655C15.568 15.4898 15.5445 15.5133 15.5201 15.5361C15.2032 15.8116 14.7862 15.9434 14.3684 15.8998Z" fill="#92929D"/>
</g>
<defs>
<clipPath id="clip0_724_1322">
<rect width="16" height="16" fill="white"/>
</clipPath>
</defs>
</svg>
