<svg width="24" height="24" viewBox="0 0 24 24" fill="none" xmlns="http://www.w3.org/2000/svg">
<path fill-rule="evenodd" clip-rule="evenodd" d="M11.492 2.03664C11.906 2.03664 12.242 2.37264 12.242 2.78664C12.242 3.20064 11.906 3.53664 11.492 3.53664H7.753C5.169 3.53664 3.5 5.30664 3.5 8.04565V16.3596C3.5 19.0986 5.169 20.8686 7.753 20.8686H16.577C19.161 20.8686 20.831 19.0986 20.831 16.3596V12.3316C20.831 11.9176 21.167 11.5816 21.581 11.5816C21.995 11.5816 22.331 11.9176 22.331 12.3316V16.3596C22.331 19.9536 20.018 22.3686 16.577 22.3686H7.753C4.312 22.3686 2 19.9536 2 16.3596V8.04565C2 4.45164 4.312 2.03664 7.753 2.03664H11.492ZM20.2016 2.91524L21.4186 4.13224C22.0116 4.72424 22.3376 5.51124 22.3366 6.34924C22.3366 7.18724 22.0106 7.97325 21.4186 8.56425L13.9096 16.0732C13.3586 16.6242 12.6246 16.9282 11.8446 16.9282H8.0986C7.8966 16.9282 7.7026 16.8462 7.5616 16.7012C7.4206 16.5572 7.3436 16.3622 7.3486 16.1592L7.4426 12.3802C7.4616 11.6282 7.7646 10.9212 8.2966 10.3882H8.2976L15.7706 2.91524C16.9926 1.69524 18.9796 1.69524 20.2016 2.91524ZM15.155 5.65124L9.3576 11.4492C9.0986 11.7082 8.9516 12.0522 8.9426 12.4172L8.8676 15.4282H11.8446C12.2246 15.4282 12.5806 15.2812 12.8496 15.0122L18.682 9.17825L15.155 5.65124ZM16.8306 3.97624L16.215 4.59024L19.742 8.11825L20.3586 7.50324C20.6666 7.19524 20.8366 6.78524 20.8366 6.34924C20.8366 5.91224 20.6666 5.50124 20.3586 5.19324L19.1416 3.97624C18.5046 3.34124 17.4686 3.34124 16.8306 3.97624Z" fill="#12CDD9"/>
</svg>
