<svg width="24" height="25" viewBox="0 0 24 25" fill="none" xmlns="http://www.w3.org/2000/svg">
<g clip-path="url(#clip0_74_767)">
<g clip-path="url(#clip1_74_767)">
<path d="M23.8068 10.7787C23.9135 10.7787 24 10.8652 24 10.9719V13C24 13.7591 23.9295 14.5013 23.7942 15.2213C22.7481 20.8139 17.8211 25.0404 11.9154 24.9997C5.2887 24.954 -0.0146415 19.5997 3.03692e-05 12.973C0.0146085 6.35809 5.3817 1 12 1C15.2425 1 18.1844 2.28634 20.3444 4.37584C20.4224 4.45127 20.4244 4.57558 20.3477 4.65227L17.4784 7.52153C17.4045 7.59541 17.2852 7.59733 17.2095 7.52528C15.8538 6.23486 14.0196 5.44263 12 5.44263C7.82947 5.44263 4.47111 8.77712 4.4428 12.9475C4.41434 17.1453 7.80884 20.5573 12 20.5573C15.4005 20.5573 18.2767 18.3109 19.2251 15.2213H12.1932C12.0865 15.2213 12 15.1348 12 15.0281V10.9718C12 10.8651 12.0865 10.7786 12.1932 10.7786H23.8068V10.7787Z" fill="#2196F3"/>
<path d="M23.8064 10.7787H22.3577C22.4644 10.7787 22.5509 10.8652 22.5509 10.9719V13C22.5509 13.7591 22.4804 14.5013 22.3451 15.2213C21.3471 20.5567 16.8169 24.6487 11.2744 24.9783C11.4865 24.9909 11.6999 24.9982 11.9149 24.9997C17.8207 25.0404 22.7477 20.8139 23.7938 15.2213C23.929 14.5013 23.9995 13.7591 23.9995 13V10.9718C23.9995 10.8652 23.913 10.7787 23.8064 10.7787Z" fill="#1E88E5"/>
<path d="M5.13565 9.83509L1.49121 7.20184C3.5358 3.50383 7.47574 1 12 1C15.2425 1 18.1845 2.28634 20.3444 4.37584C20.4224 4.45127 20.4244 4.57558 20.3477 4.65227L17.4784 7.52153C17.4047 7.59527 17.2854 7.59756 17.2099 7.52566C15.8542 6.235 14.0198 5.44267 12 5.44267C8.95634 5.44267 6.33274 7.24192 5.13565 9.83509Z" fill="#F44336"/>
<path d="M4.08301 9.07488L5.13512 9.83506C6.22777 7.46815 8.50909 5.76349 11.2133 5.48388C11.2336 5.48167 11.2532 5.479 11.2739 5.47703C11.0359 5.45444 10.7948 5.44263 10.5508 5.44263C7.80127 5.44263 5.40502 6.89215 4.08301 9.07488Z" fill="#E53935"/>
<path d="M18.8956 4.37584C18.9736 4.45127 18.9756 4.57558 18.8989 4.65231L16.57 6.9812C16.7931 7.15089 17.0067 7.33239 17.2093 7.52533C17.285 7.59737 17.4044 7.59545 17.4783 7.52158L20.3475 4.65231C20.4243 4.57558 20.4222 4.45131 20.3442 4.37584C18.1843 2.28634 15.2423 1 11.9998 1C11.7565 1 11.5151 1.00811 11.2754 1.02241C14.2304 1.19842 16.8976 2.44309 18.8956 4.37584Z" fill="#E53935"/>
<path d="M20.8027 21.1551C18.6113 23.5199 15.4783 25 12 25C7.30187 25 3.23443 22.3001 1.26465 18.3669L4.98535 15.8171C6.10187 18.5953 8.82202 20.5573 12 20.5573C13.9943 20.5573 15.8081 19.7846 17.1583 18.5223L20.8027 21.1551Z" fill="#4CAF50"/>
<path d="M4.98485 15.8173L3.8877 16.5691C5.16199 18.943 7.66788 20.5574 10.5507 20.5574C10.7945 20.5574 11.0355 20.5454 11.2734 20.5229C8.41174 20.25 6.01526 18.3813 4.98485 15.8173Z" fill="#43A047"/>
<path d="M11.9999 25.0001C15.4782 25.0001 18.6112 23.52 20.8026 21.1552L19.91 20.5104C17.8524 23.0712 14.7656 24.77 11.2773 24.9782C11.5164 24.9925 11.7573 25.0001 11.9999 25.0001Z" fill="#43A047"/>
<path d="M4.44267 13.0001C4.44267 13.9958 4.63533 14.9466 4.98544 15.8173L1.26469 18.367C0.455391 16.7522 0 14.9292 0 13.0001C0 10.8971 0.540844 8.92053 1.49119 7.2019L5.13562 9.83515C4.69088 10.7975 4.44267 11.8701 4.44267 13.0001Z" fill="#FFC107"/>
<path d="M3.88846 16.5691L4.98562 15.8173C4.63551 14.9466 4.44285 13.9958 4.44285 13C4.44285 11.8701 4.69105 10.7975 5.1358 9.83512L4.08369 9.07495C3.40049 10.203 3.00398 11.5267 2.99432 12.9476C2.98541 14.258 3.31012 15.4918 3.88846 16.5691Z" fill="#FFB300"/>
</g>
</g>
<defs>
<clipPath id="clip0_74_767">
<rect width="24" height="24" fill="white" transform="translate(0 0.637695)"/>
</clipPath>
<clipPath id="clip1_74_767">
<rect width="24" height="24" fill="white" transform="translate(0 1)"/>
</clipPath>
</defs>
</svg>
