<svg width="125" height="125" viewBox="0 0 125 125" fill="none" xmlns="http://www.w3.org/2000/svg">
<path d="M112.773 28.1982C114.121 28.1982 115.215 29.292 115.215 30.6396C115.215 31.9873 114.121 33.0811 112.773 33.0811C111.426 33.0811 110.332 31.9873 110.332 30.6396C110.332 29.292 111.426 28.1982 112.773 28.1982Z" fill="#94D4FF"/>
<path d="M112.773 91.6748C114.121 91.6748 115.215 92.7686 115.215 94.1162C115.215 95.4639 114.121 96.5576 112.773 96.5576C111.426 96.5576 110.332 95.4639 110.332 94.1162C110.332 92.7686 111.426 91.6748 112.773 91.6748Z" fill="#94D4FF"/>
<path d="M100.566 106.323C103.264 106.323 105.449 108.508 105.449 111.206C105.449 113.904 103.264 116.089 100.566 116.089C97.8687 116.089 95.6836 113.904 95.6836 111.206C95.6836 108.508 97.8687 106.323 100.566 106.323Z" fill="#12CDD9"/>
<path d="M95.6836 6.22559C97.0312 6.22559 98.125 7.31934 98.125 8.66699C98.125 10.0146 97.0312 11.1084 95.6836 11.1084C94.3359 11.1084 93.2422 10.0146 93.2422 8.66699C93.2422 7.31934 94.3359 6.22559 95.6836 6.22559Z" fill="#94D4FF"/>
<path d="M61.5039 13.5498C34.5361 13.5498 12.6758 35.4102 12.6758 62.3779C12.6758 89.3457 34.5361 111.206 61.5039 111.206C88.4717 111.206 110.332 89.3457 110.332 62.3779C110.332 35.4102 88.4717 13.5498 61.5039 13.5498Z" fill="#FF8700"/>
<path d="M24.8828 111.206C26.2305 111.206 27.3242 112.3 27.3242 113.647C27.3242 114.995 26.2305 116.089 24.8828 116.089C23.5349 116.089 22.4414 114.995 22.4414 113.647C22.4414 112.3 23.5349 111.206 24.8828 111.206Z" fill="#94D4FF"/>
<path d="M18.7793 11.1084C22.1509 11.1084 24.8828 13.8403 24.8828 17.2119C24.8828 20.5835 22.1509 23.3154 18.7793 23.3154C15.4075 23.3154 12.6758 20.5835 12.6758 17.2119C12.6758 13.8403 15.4075 11.1084 18.7793 11.1084Z" fill="#12CDD9"/>
<path d="M10.2344 30.6396C11.582 30.6396 12.6758 31.7334 12.6758 33.0811C12.6758 34.4287 11.582 35.5225 10.2344 35.5225C8.88647 35.5225 7.79297 34.4287 7.79297 33.0811C7.79297 31.7334 8.88647 30.6396 10.2344 30.6396Z" fill="#94D4FF"/>
<path d="M10.2344 91.6748C11.582 91.6748 12.6758 92.7686 12.6758 94.1162C12.6758 95.4639 11.582 96.5576 10.2344 96.5576C8.88647 96.5576 7.79297 95.4639 7.79297 94.1162C7.79297 92.7686 8.88647 91.6748 10.2344 91.6748Z" fill="#94D4FF"/>
<g clip-path="url(#clip0_184_3295)">
<path d="M62 98.1875C51.2544 98.1875 41.4859 92.1098 36.6871 82.5752C26.1831 81.5254 18 72.8217 18 62.0938C18 51.3658 26.1831 42.6621 36.6871 41.6123C41.4859 32.0777 51.2544 26 62 26C72.7456 26 82.5141 32.0777 87.3129 41.6123C97.8169 42.6621 106 51.3658 106 62.0938C106 72.8217 97.8169 81.5254 87.3129 82.5752C82.5141 92.1098 72.7456 98.1875 62 98.1875Z" fill="#10B2BC"/>
<path d="M86.3129 82.5752C96.8169 81.5254 105 72.8217 105 62.0938C105 51.3658 96.8169 42.6621 86.3129 41.6123C81.5141 32.0777 71.7456 26 61 26V98.1875C71.7456 98.1875 81.5141 92.1098 86.3129 82.5752Z" fill="#12CDD9"/>
<path d="M36.2188 114C31.9538 114 28.4844 110.531 28.4844 106.266C28.4844 102.001 31.9538 98.5312 36.2188 98.5312C40.4837 98.5312 43.9531 102.001 43.9531 106.266C43.9531 110.531 40.4837 114 36.2188 114Z" fill="#12CDD9"/>
<path d="M62 72.4062H64.5781V77.5625H62V72.4062Z" fill="#252836"/>
<path d="M72 51.6251C72 54.6728 70.2602 57.5478 67.5 59.1001C66.5998 59.6177 66 60.5375 66 61.5725V66H60V61.5723C60 59.1576 61.14 56.8001 63 55.1899C64.2128 54.0276 66 53.6878 66 51.6249C66 50.0147 64.6802 48.75 63 48.75C61.3198 48.75 60 50.0147 60 51.6249H54C54 46.8523 58.0198 43 63 43C67.9802 43 72 46.8525 72 51.6251Z" fill="#252836"/>
<path d="M60 72H66V78H60V72Z" fill="#252836"/>
<path d="M72 51.625C72 54.6727 70.2602 57.5477 67.5 59.1C66.5998 59.6177 66 60.5375 66 61.5725V66H63V55.19C64.2128 54.0277 66 53.6879 66 51.625C66 50.0148 64.6802 48.75 63 48.75V43C67.9802 43 72 46.8523 72 51.625Z" fill="#252836"/>
</g>
<defs>
<clipPath id="clip0_184_3295">
<rect width="88" height="88" fill="white" transform="translate(18 26)"/>
</clipPath>
</defs>
</svg>
